<svg width="28" height="28" fill="none" xmlns="http://www.w3.org/2000/svg"><path d="M14.014 5.206l-2.582 5.231-5.775.84 4.179 4.074-.988 5.75 5.166-2.715 5.165 2.712-.987-5.75 4.178-4.072-5.775-.839-2.581-5.23z" fill="#FF9501" fill-opacity=".8"/><path d="M24.845 9.647l-6.943-1.01-3.104-6.29a.879.879 0 00-1.57 0l-3.103 6.29-6.942 1.01a.873.873 0 00-.484 1.493l5.023 4.897-1.187 6.915a.873.873 0 001.269.922l6.21-3.265 6.21 3.265a.874.874 0 001.269-.921l-1.188-6.916 5.023-4.897a.873.873 0 00.255-.5.872.872 0 00-.738-.993zm-6.653 5.701l.987 5.75-5.165-2.712L8.848 21.1l.988-5.75-4.179-4.074 5.775-.84 2.582-5.23 2.58 5.23 5.776.84-4.178 4.071z" fill="#FF9501"/></svg>