<svg xmlns="http://www.w3.org/2000/svg">
  <symbol id="icon_right" width="17" height="35" viewBox="0 0 17 35">
    <path d="M2 2.5l15 15-15 15" stroke="currentColor" stroke-width="5"/>
  </symbol>
  <symbol id="icon_left" width="17" height="35" viewBox="0 0 17 35">
    <path d="M15 2.5l-15 15 15 15" stroke="currentColor" stroke-width="5"/>
  </symbol>
  <symbol id="icon_header-logo" width="100%" height="100%" viewBox="0 0 168 56">
    <path d="M51.8 0h110.6a5.6 5.6 0 015.6 5.6v44.8a5.6 5.6 0 01-5.6 5.6H51.8V0z" fill="#0C8543"/>
    <path
      d="M70.494 28a7.352 7.352 0 015.067 1.65 5.509 5.509 0 011.856 4.322 5.46 5.46 0 01-1.85 4.317 7.407 7.407 0 01-5.073 1.63h-3.153v4.149l2.004.385V46.7H61.6v-2.247l1.99-.385V30.646l-1.99-.38v-2.26h8.894V28zm-3.153 9.029h3.153a3.1 3.1 0 002.38-.854 3.052 3.052 0 00.798-2.177 3.18 3.18 0 00-.798-2.228 3.05 3.05 0 00-2.38-.88h-3.153v6.139zm20.074 9.67a6.765 6.765 0 01-.27-.712 5.613 5.613 0 01-.18-.738 5.159 5.159 0 01-1.624 1.246 4.86 4.86 0 01-2.19.475 4.587 4.587 0 01-3.242-1.112 3.92 3.92 0 01-1.201-3.024 3.439 3.439 0 011.567-3.018 8.185 8.185 0 014.597-1.065h1.914V37.39a2.047 2.047 0 00-.578-1.554 2.38 2.38 0 00-1.708-.552 4.048 4.048 0 00-1.143.147 2.99 2.99 0 00-.809.353l-.245 1.483h-2.825l.013-3.08c.733-.487 1.525-.88 2.356-1.17a8.541 8.541 0 012.896-.474 6.594 6.594 0 014.2 1.26 4.312 4.312 0 011.612 3.602v6.344c.003.18.018.36.045.539l1.142.154V46.7h-4.327zm-3.25-2.504a3.25 3.25 0 001.54-.365c.429-.215.799-.53 1.08-.919v-2.12h-1.913a2.614 2.614 0 00-1.811.56 1.748 1.748 0 00-.616 1.343A1.387 1.387 0 0082.9 43.8c.359.283.808.424 1.264.396zm9.132.256l1.798-.385v-8.62l-1.99-.382v-2.26h5.483l.167 2.028a4.37 4.37 0 011.26-1.68 2.812 2.812 0 011.785-.603 4.617 4.617 0 011.169.154l-.398 3.416-1.54-.04a2.629 2.629 0 00-1.36.321 2.08 2.08 0 00-.823.911v6.755l1.798.385V46.7h-7.349v-2.25zM109.93 29.4v3.403h2.441v2.633h-2.441v7.077c-.039.414.08.828.335 1.157a1.186 1.186 0 00.899.347c.225.003.449-.007.673-.03a6.04 6.04 0 00.648-.109l.321 2.71a8.974 8.974 0 01-1.246.29 8.67 8.67 0 01-1.336.096 3.997 3.997 0 01-2.986-1.066 4.674 4.674 0 01-1.043-3.38v-7.09h-2.044v-2.634h2.044V29.4l3.735-.001zm4.072 15.054l1.797-.385v-8.621l-1.991-.385V32.8h5.484l.167 1.99a5.075 5.075 0 011.708-1.656 4.434 4.434 0 012.273-.59 4.181 4.181 0 013.289 1.322 6.113 6.113 0 011.182 4.149v6.049l1.797.385v2.25h-7.165v-2.247l1.606-.385V38.03a2.813 2.813 0 00-.56-1.984 2.276 2.276 0 00-1.708-.584 2.897 2.897 0 00-1.336.303 2.748 2.748 0 00-.988.854v7.45l1.516.384V46.7h-7.071v-2.247zm23.426 2.52a6.254 6.254 0 01-4.804-1.927 6.89 6.89 0 01-1.797-4.9v-.513a7.601 7.601 0 011.702-5.1 5.645 5.645 0 014.566-1.99 5.621 5.621 0 014.366 1.7 6.525 6.525 0 011.554 4.585v2.042h-8.296l-.025.077c.035.837.36 1.636.918 2.261a2.859 2.859 0 002.215.886 7.217 7.217 0 002.068-.247 9.508 9.508 0 001.797-.79l1.015 2.311a7.378 7.378 0 01-2.229 1.139 9.48 9.48 0 01-3.05.463v.003zm-.335-11.533a1.958 1.958 0 00-1.643.796 4.14 4.14 0 00-.745 2.1l.039.065h4.598v-.335a3.014 3.014 0 00-.56-1.907 2.011 2.011 0 00-1.687-.722l-.002.003zm7.98 9.016l1.798-.385v-8.624l-1.994-.383v-2.26h5.484l.167 2.028a4.363 4.363 0 011.26-1.68 2.812 2.812 0 011.785-.603 4.617 4.617 0 011.169.154l-.398 3.416-1.54-.04a2.63 2.63 0 00-1.361.321 2.08 2.08 0 00-.822.911v6.755l1.798.385V46.7h-7.349l.003-2.244zM52.5 55.3H5.6a4.906 4.906 0 01-4.9-4.9V5.6C.7 2.898 2.898.7 5.6.7h46.9v54.6z"
      fill="#fff"/>
    <path
      d="M5.6 1.4a4.205 4.205 0 00-4.2 4.2v44.8c0 2.316 1.884 4.2 4.2 4.2h46.2V1.4H5.6zm0-1.4h47.6v56H5.6A5.6 5.6 0 010 50.4V5.6A5.6 5.6 0 015.6 0z"
      fill="#0C8543"/>
  </symbol>
  <symbol id="icon_footer-logo" width="168" height="56" viewBox="0 0 168 56">
    <path d="M51.8 0h110.6a5.6 5.6 0 015.6 5.6v44.8a5.6 5.6 0 01-5.6 5.6H51.8V0z" fill="#0C8543" stroke="#fff"
          stroke-width="2"/>
    <path
      d="M70.494 28a7.352 7.352 0 015.067 1.65 5.509 5.509 0 011.856 4.322 5.46 5.46 0 01-1.85 4.317 7.407 7.407 0 01-5.073 1.63h-3.153v4.149l2.004.385V46.7H61.6v-2.247l1.99-.385V30.646l-1.99-.38v-2.26h8.894V28zm-3.153 9.029h3.153a3.1 3.1 0 002.38-.854 3.052 3.052 0 00.798-2.177 3.18 3.18 0 00-.798-2.228 3.05 3.05 0 00-2.38-.88h-3.153v6.139zm20.074 9.67a6.765 6.765 0 01-.27-.712 5.613 5.613 0 01-.18-.738 5.159 5.159 0 01-1.624 1.246 4.86 4.86 0 01-2.19.475 4.587 4.587 0 01-3.242-1.112 3.92 3.92 0 01-1.201-3.024 3.439 3.439 0 011.567-3.018 8.185 8.185 0 014.597-1.065h1.914V37.39a2.047 2.047 0 00-.578-1.554 2.38 2.38 0 00-1.708-.552 4.048 4.048 0 00-1.143.147 2.99 2.99 0 00-.809.353l-.245 1.483h-2.825l.013-3.08c.733-.487 1.525-.88 2.356-1.17a8.541 8.541 0 012.896-.474 6.594 6.594 0 014.2 1.26 4.312 4.312 0 011.612 3.602v6.344c.003.18.018.36.045.539l1.142.154V46.7h-4.327zm-3.25-2.504a3.25 3.25 0 001.54-.365c.429-.215.799-.53 1.08-.919v-2.12h-1.913a2.614 2.614 0 00-1.811.56 1.748 1.748 0 00-.616 1.343A1.387 1.387 0 0082.9 43.8c.359.283.808.424 1.264.396zm9.132.256l1.798-.385v-8.62l-1.99-.382v-2.26h5.483l.167 2.028a4.37 4.37 0 011.26-1.68 2.812 2.812 0 011.785-.603 4.617 4.617 0 011.169.154l-.398 3.416-1.54-.04a2.629 2.629 0 00-1.36.321 2.08 2.08 0 00-.823.911v6.755l1.798.385V46.7h-7.349v-2.25zM109.93 29.4v3.403h2.441v2.633h-2.441v7.077c-.039.414.08.828.335 1.157a1.186 1.186 0 00.899.347c.225.003.449-.007.673-.03a6.04 6.04 0 00.648-.109l.321 2.71a8.974 8.974 0 01-1.246.29 8.67 8.67 0 01-1.336.096 3.997 3.997 0 01-2.986-1.066 4.674 4.674 0 01-1.043-3.38v-7.09h-2.044v-2.634h2.044V29.4l3.735-.001zm4.072 15.054l1.797-.385v-8.621l-1.991-.385V32.8h5.484l.167 1.99a5.075 5.075 0 011.708-1.656 4.434 4.434 0 012.273-.59 4.181 4.181 0 013.289 1.322 6.113 6.113 0 011.182 4.149v6.049l1.797.385v2.25h-7.165v-2.247l1.606-.385V38.03a2.813 2.813 0 00-.56-1.984 2.276 2.276 0 00-1.708-.584 2.897 2.897 0 00-1.336.303 2.748 2.748 0 00-.988.854v7.45l1.516.384V46.7h-7.071v-2.247zm23.426 2.52a6.254 6.254 0 01-4.804-1.927 6.89 6.89 0 01-1.797-4.9v-.513a7.601 7.601 0 011.702-5.1 5.645 5.645 0 014.566-1.99 5.621 5.621 0 014.366 1.7 6.525 6.525 0 011.554 4.585v2.042h-8.296l-.025.077c.035.837.36 1.636.918 2.261a2.859 2.859 0 002.215.886 7.217 7.217 0 002.068-.247 9.508 9.508 0 001.797-.79l1.015 2.311a7.378 7.378 0 01-2.229 1.139 9.48 9.48 0 01-3.05.463v.003zm-.335-11.533a1.958 1.958 0 00-1.643.796 4.14 4.14 0 00-.745 2.1l.039.065h4.598v-.335a3.014 3.014 0 00-.56-1.907 2.011 2.011 0 00-1.687-.722l-.002.003zm7.98 9.016l1.798-.385v-8.624l-1.994-.383v-2.26h5.484l.167 2.028a4.363 4.363 0 011.26-1.68 2.812 2.812 0 011.785-.603 4.617 4.617 0 011.169.154l-.398 3.416-1.54-.04a2.63 2.63 0 00-1.361.321 2.08 2.08 0 00-.822.911v6.755l1.798.385V46.7h-7.349l.003-2.244zM52.5 55.3H5.6a4.906 4.906 0 01-4.9-4.9V5.6C.7 2.898 2.898.7 5.6.7h46.9v54.6z"
      fill="#fff"/>
    <path
      d="M5.6 1.4a4.205 4.205 0 00-4.2 4.2v44.8c0 2.316 1.884 4.2 4.2 4.2h46.2V1.4H5.6zm0-1.4h47.6v56H5.6A5.6 5.6 0 010 50.4V5.6A5.6 5.6 0 015.6 0z"
      fill="#fff"/>
  </symbol>
  <symbol id="icon_rating-star" width="28" height="28" viewBox="0 0 28 28">
    <path
      d="M14.014 5.206l-2.582 5.231-5.775.84 4.179 4.074-.988 5.75 5.166-2.715 5.165 2.712-.987-5.75 4.178-4.072-5.775-.839-2.581-5.23z"
      fill="#FF9501" fill-opacity=".8"/>
    <path
      d="M24.845 9.647l-6.943-1.01-3.104-6.29a.879.879 0 00-1.57 0l-3.103 6.29-6.942 1.01a.873.873 0 00-.484 1.493l5.023 4.897-1.187 6.915a.873.873 0 001.269.922l6.21-3.265 6.21 3.265a.874.874 0 001.269-.921l-1.188-6.916 5.023-4.897a.873.873 0 00.255-.5.872.872 0 00-.738-.993zm-6.653 5.701l.987 5.75-5.165-2.712L8.848 21.1l.988-5.75-4.179-4.074 5.775-.84 2.582-5.23 2.58 5.23 5.776.84-4.178 4.071z"
      fill="#FF9501"/>
  </symbol>
  <symbol id="icon_warranty" width="70" height="59" viewBox="0 0 70 59">
    <path fill-rule="evenodd" clip-rule="evenodd"
          d="M65.732 0H3.415C1.537 0 0 1.4 0 3.111v41.222c0 1.711 1.537 3.111 3.415 3.111h29.178l-2.23 5.348.002-.003c-.112.27-.192.576-.193.929 0 .275.052.577.184.878.193.453.594.873 1.053 1.11.458.243.932.323 1.337.323.181 0 .358-.017.529-.045l-.002.001 2.8-.457 1.76 2.035a2.755 2.755 0 002.085.96 2.659 2.659 0 001.63-.552c.408-.322.64-.692.787-1.038l1.864-4.474 1.864 4.473v.001c.145.346.38.716.787 1.038a2.66 2.66 0 001.63.553 2.758 2.758 0 002.085-.96v-.001l1.76-2.035 2.8.457h-.002c.17.027.347.044.53.044.271 0 .568-.035.876-.13.46-.14.944-.445 1.256-.867a2.17 2.17 0 00.441-1.313c0-.353-.08-.659-.193-.928l-2.228-5.346h9.927c1.878 0 3.414-1.4 3.414-3.11V3.111C69.146 1.4 67.61 0 65.732 0zm-5.395 43.556l-3.414-3.112h3.635l3.415 3.112h-3.636zm-16.374 0c-4.471 0-8.11-3.315-8.11-7.39 0-4.073 3.639-7.388 8.11-7.388 4.472 0 8.11 3.315 8.11 7.389s-3.638 7.389-8.11 7.389zm0-18.667c-6.838 0-12.378 5.05-12.378 11.278 0 .664.075 1.312.197 1.944H10.244V9.333h48.658v28.778h-2.757c.121-.632.197-1.28.197-1.944 0-6.229-5.54-11.278-12.379-11.278zm17.5 14.73v-3.507l3.415 3.111v3.507l-3.415-3.11zm0-5.156v-3.297l3.415 3.111v3.297l-3.415-3.11zM4.268 43.556V3.889h60.61v28.738l-3.415-3.112V7.778c0-.428-.384-.778-.853-.778H8.537c-.47 0-.854.35-.854.778v31.889c0 .427.384.777.854.777h23.975a11.055 11.055 0 001.827 2.808l-.126.304H4.268zm35.111 9.513l-.22-.254c-.404-.459-.852-.726-1.315-.92a4.03 4.03 0 00-1.533-.31c-.18.001-.374.014-.584.05l.011-.003-.35.057 2.4-5.757a13.075 13.075 0 004.012 1.33l-2.42 5.807zm13.29-1.435a3.48 3.48 0 00-.584-.048 4.03 4.03 0 00-1.533.308c-.463.195-.91.462-1.316.921l-.219.254-2.45-5.88a12.985 12.985 0 003.953-1.47l2.487 5.969-.35-.057.013.003zm1.23-8.761a11.037 11.037 0 001.427-2.234l3.2 2.917h-4.343l-.284-.683zM18.78 15.944h23.903c.708 0 1.28.523 1.28 1.167s-.572 1.167-1.28 1.167H18.78c-.708 0-1.281-.523-1.281-1.167s.573-1.167 1.28-1.167zm0 7.778h9.39c.708 0 1.281.523 1.281 1.167s-.573 1.166-1.28 1.166h-9.39c-.708 0-1.281-.522-1.281-1.166 0-.644.573-1.167 1.28-1.167zm20.488 12.445c0-2.363 2.101-4.278 4.695-4.278 2.595 0 4.695 1.915 4.695 4.278 0 2.362-2.1 4.277-4.695 4.277-2.594 0-4.695-1.915-4.695-4.277zm2.561 0c0 1.072.958 1.944 2.134 1.944 1.177 0 2.135-.872 2.135-1.944 0-1.073-.958-1.945-2.135-1.945-1.176 0-2.134.872-2.134 1.945z"
          fill="currentColor"/>
  </symbol>
  <symbol id="icon_money" width="60" height="66" viewBox="0 0 60 66">
    <path fill-rule="evenodd" clip-rule="evenodd"
          d="M36.265 46.933a5.068 5.068 0 01-1.798 1.89c-1.085.672-2.367 1.008-3.746 1.144v1.225a1.167 1.167 0 01-2.333 0V50.01c-1.698-.13-3.153-.682-4.239-1.6-1.255-1.052-1.962-2.598-1.954-4.266a1.09 1.09 0 012.177 0c.008 1.081.409 1.94 1.183 2.604.644.544 1.598.934 2.833 1.058V39.57l-.067-.017-.105-.027a26.722 26.722 0 01-.326-.082c-1.21-.324-2.416-.696-3.46-1.38-.596-.39-1.138-.895-1.536-1.544-.457-.742-.702-1.653-.7-2.674.001-1.282.456-2.759 1.604-3.937 1.015-1.047 2.559-1.781 4.59-1.928V26.85a1.167 1.167 0 012.333 0v1.193c1.129.129 2.132.395 2.988.812 1.224.594 2.158 1.502 2.684 2.61.352.735.522 1.547.522 2.38a1.089 1.089 0 01-2.178 0 3.3 3.3 0 00-.308-1.442 3.138 3.138 0 00-.93-1.133c-.617-.481-1.536-.864-2.776-1.04v7.68l.103.026c.136.037.273.072.41.11 1.224.347 2.447.774 3.494 1.543.595.438 1.128 1 1.512 1.7.441.8.675 1.762.674 2.854 0 1.048-.219 1.992-.65 2.789zm-11.403-11.39c.3.407.76.751 1.396 1.051.596.287 1.332.513 2.132.725v-7.152a6.098 6.098 0 00-1.604.35 3.913 3.913 0 00-1.43.914 3.482 3.482 0 00-.982 2.414c.005.8.192 1.29.488 1.699zm9.356 6.603c-.318-.477-.78-.86-1.409-1.194-.585-.315-1.304-.561-2.086-.783v7.601c.672-.08 1.286-.21 1.799-.406.888-.343 1.471-.81 1.828-1.465.238-.442.387-1 .388-1.755-.003-.913-.207-1.517-.52-1.998z"
          fill="currentColor"/>
    <path
      d="M12.154 32.534a1.166 1.166 0 00-1.534.606 19.916 19.916 0 00-.814 2.222 1.167 1.167 0 002.236.668c.198-.664.438-1.318.718-1.962a1.166 1.166 0 00-.606-1.534zM12.837 29.19c2.014-2.884 4.651-5.347 7.54-7.173a1.166 1.166 0 111.245 1.973c-2.628 1.659-5.051 3.926-6.87 6.535a1.167 1.167 0 11-1.915-1.336z"
      fill="currentColor"/>
    <path fill-rule="evenodd" clip-rule="evenodd"
          d="M57.556 41.082c0 3.231-.596 6.813-1.56 9.064a8.461 8.461 0 013.115 6.562c0 4.686-3.807 8.484-8.503 8.484a8.491 8.491 0 01-6.635-3.186c-4.208 2.02-9.142 3.186-14.417 3.186-5.276 0-10.21-1.165-14.419-3.186a8.491 8.491 0 01-6.635 3.186C3.806 65.192 0 61.394 0 56.708a8.462 8.462 0 013.116-6.563c-.964-2.25-1.561-5.833-1.56-9.064C1.559 28.776 12.1 17.235 22.77 13.536l-.033-.09c-.035-.095-.07-.19-.092-.288l-2.51-11.043C19.838.81 20.382 0 21.395 0c.285 0 .605.063.954.198l4.304 1.655c.798.308 1.851.46 2.903.46 1.053 0 2.106-.152 2.904-.46L36.763.198c.35-.135.67-.198.955-.198 1.013 0 1.557.811 1.26 2.115l-2.51 11.043c-.024.103-.06.202-.097.3a12.2 12.2 0 00-.029.078c10.67 3.699 21.214 15.24 21.214 27.546zm-31.14-28.87l.116.09h6.048l.115-.09 1.564-6.885-.403.155c-1.549.596-3.194.72-4.3.72-1.107 0-2.752-.124-4.298-.72l-.406-.155 1.564 6.884zM8.501 61.303c1.406 0 2.72-.632 3.604-1.733.208-.258.446-.482.7-.673a28.102 28.102 0 01-2.903-2.325 26.96 26.96 0 01-3.679-4.11 3.877 3.877 0 01-.645.693 4.578 4.578 0 00-1.69 3.553c0 2.534 2.069 4.595 4.613 4.595zm7.803-3.003c.174.055.347.119.515.2 3.82 1.833 8.225 2.802 12.735 2.802.912 0 1.815-.05 2.714-.128l-.223-1.594a.585.585 0 011.157-.161l.228 1.632c.864-.108 1.72-.248 2.562-.427l-.417-2.275a.584.584 0 011.148-.21l.405 2.214a28.489 28.489 0 002.57-.782l-.825-2.241a.584.584 0 011.095-.403l.82 2.223.277-.109.03-.012c.336-.141.67-.288 1-.443.324-.158.652-.328.986-.515l-1.825-2.998a.582.582 0 11.996-.606l1.828 3a24.214 24.214 0 002.252-1.636l-2.64-3.535a.583.583 0 01.934-.698l2.595 3.475.11-.097a5.01 5.01 0 00.143-.125c2.623-2.395 4.485-5.08 5.31-7.273.533-1.769.883-4.254.883-6.497 0-5.864-2.976-12.139-8.164-17.215-4.84-4.734-10.95-7.675-15.947-7.675-4.998 0-11.107 2.94-15.946 7.674-5.188 5.077-8.164 11.351-8.166 17.215 0 2.722.513 5.82 1.246 7.533.042.099.072.199.103.299L6.82 49c.985 1.874 2.579 3.953 4.658 5.851 1.589 1.456 3.254 2.617 4.826 3.45zm30.7 1.269a4.604 4.604 0 003.604 1.733c2.545 0 4.614-2.061 4.614-4.595a4.58 4.58 0 00-1.69-3.553 3.875 3.875 0 01-.729-.805 26.792 26.792 0 01-3.754 4.222 28.016 28.016 0 01-2.826 2.27c.287.203.553.443.781.728z"
          fill="currentColor"/>
  </symbol>
  <symbol id="icon_home" width="70" height="53" viewBox="0 0 70 53">
    <path
      d="M24.111 18.278h-7.778a1.167 1.167 0 010-2.334h7.778a1.167 1.167 0 010 2.334zM45.889 18.278h7.778a1.167 1.167 0 000-2.334h-7.778a1.167 1.167 0 000 2.334zM38.889 18.278H31.11a1.167 1.167 0 010-2.334h7.778a1.167 1.167 0 010 2.334z"
      fill="currentColor"/>
    <path fill-rule="evenodd" clip-rule="evenodd"
          d="M3.111 0H66.89A3.12 3.12 0 0170 3.111v5.445a3.12 3.12 0 01-3.111 3.11h-.778V49A3.12 3.12 0 0163 52.111H7A3.12 3.12 0 013.889 49V11.667H3.11A3.12 3.12 0 010 8.556V3.11A3.12 3.12 0 013.111 0zm44.722 30.722v-3.889H22.167v3.89h25.666zm0 2.334H22.167v3.888h25.666v-3.888zm0 6.222H22.167v8.944h25.666v-8.944zm13.35-2.357l1.04 1.038V11.667H7.777v36.555h12.055V26.833h-3.5a1.167 1.167 0 010-2.333h37.334a1.167 1.167 0 010 2.333h-3.5v21.39h4.47l-1.176-1.177a.583.583 0 11.825-.825l2 2.001h3.75l-3.859-3.86a.583.583 0 11.826-.825l4.684 4.685h.535v-3.214l-4.713-4.712a.583.583 0 11.825-.825l3.888 3.887v-3.749l-1.863-1.863a.583.583 0 11.825-.825zM3.89 7.778H66.11v-3.89H3.89v3.89z"
          fill="currentColor"/>
  </symbol>
  <symbol id="icon_handshake" width="70" height="46" viewBox="0 0 70 46">
    <path
      d="M70 12.24c-.002-1.174-.351-2.377-1.147-3.386L63.43 2.012A5.25 5.25 0 0061.483.504 5.673 5.673 0 0059.146 0c-.954 0-1.936.242-2.81.779l-5.288 3.243c-.192.12-.497.247-.855.334a4.974 4.974 0 01-1.165.135c-.62.005-1.209-.126-1.525-.284l-5.178-2.472c-.973-.46-2.012-.634-3.043-.638-.743 0-1.483.096-2.201.29a6.66 6.66 0 00-2.047.93l-.224.155c-.452-.22-1.02-.5-1.644-.807-1.16-.557-2.433-.756-3.719-.765-1.162.006-2.322.175-3.402.622l-3.527 1.483c-.435.19-1.266.347-2.088.34-.822.007-1.653-.15-2.087-.34l-3.53-1.484a5.974 5.974 0 00-2.32-.448c-.89 0-1.764.173-2.585.5-.818.33-1.59.817-2.22 1.51L1.26 10.178A4.836 4.836 0 000 13.43a4.853 4.853 0 001.742 3.716l5.344 4.493-2.264 2.39.003.001a4.885 4.885 0 00-1.375 3.393 4.9 4.9 0 001.56 3.581l.577.54a4.98 4.98 0 001.382.896 4.892 4.892 0 00-.27 1.544 4.896 4.896 0 001.56 3.583l.577.54a5.09 5.09 0 004.64 1.225c.259.595.64 1.15 1.147 1.622l.578.542a5.134 5.134 0 005.44.975c.248.461.57.894.975 1.271l.58.543a5.085 5.085 0 003.478 1.363 5.085 5.085 0 003.65-1.53l1.967-2.024 2.881 2.595-.01-.01A5.087 5.087 0 0037.591 46a5.09 5.09 0 003.694-1.575l.543-.576c.27-.285.485-.599.674-.924l.51.463a5.084 5.084 0 003.429 1.317 5.083 5.083 0 003.696-1.576l.544-.574a4.848 4.848 0 001.116-1.962c.154.016.307.042.462.042a5.081 5.081 0 003.697-1.576l.542-.573.001-.002a4.891 4.891 0 001.344-3.365c0-.11-.01-.22-.017-.33a5.03 5.03 0 002.251-1.368l.544-.575a4.888 4.888 0 001.345-3.367 4.895 4.895 0 00-1.47-3.486l-.547-.613 8.642-9.422c.971-1.065 1.405-2.404 1.408-3.718zM36.264 6.122l1.009-.7c.188-.131.488-.272.845-.368.36-.099.771-.153 1.165-.152.55-.004 1.06.112 1.347.254l5.177 2.472c1.026.484 2.124.663 3.222.668.706 0 1.412-.08 2.1-.247a6.942 6.942 0 001.975-.8l5.288-3.244c.205-.126.465-.2.755-.2.242 0 .494.054.708.152.215.098.39.234.514.392l5.423 6.841c.192.237.332.628.33 1.05.003.474-.176.928-.41 1.175l-.818.89-1.307-1.28a.59.59 0 00-.822 0 .564.564 0 000 .808l1.348 1.323-1.771 1.932-2.562-2.514a.59.59 0 00-.823 0 .563.563 0 000 .807l2.605 2.557-1.772 1.931-2.072-2.034a.59.59 0 00-.823 0 .564.564 0 000 .807l2.117 2.077-1.73 1.884-3.318-3.027a61.635 61.635 0 00-4.976-4.001l-5.952-4.207a6.14 6.14 0 00-1.893-.884 7.537 7.537 0 00-2.025-.274c-1.157.004-2.33.247-3.389.867l-2.149 1.274c-.2.118-.448.186-.721.186a1.69 1.69 0 01-.71-.157 1.342 1.342 0 01-.514-.405l-.475-.629-.002-.001a1.163 1.163 0 01.24-1.622l4.866-3.6zM8.158 28.824l-.047-.045-.003-.002h-.002a1.88 1.88 0 01-.597-1.378c.002-.48.176-.944.532-1.312l5.595-5.754a1.95 1.95 0 011.404-.587c.486 0 .962.174 1.336.521l.046.044.003.003c.397.371.596.868.597 1.378a1.874 1.874 0 01-.533 1.312l-5.59 5.752a1.95 1.95 0 01-1.406.587c-.487 0-.962-.172-1.335-.519zm7.3 5.245l-1.189 1.223c-.378.39-.885.587-1.404.587-.488 0-.964-.173-1.337-.522l-.595-.556a1.87 1.87 0 01-.598-1.379c.001-.477.176-.944.532-1.31l7.465-7.683c.378-.39.885-.585 1.404-.586.488.001.963.173 1.337.522l.595.557c.397.372.596.869.597 1.378 0 .478-.176.946-.532 1.313l-1.187 1.221c-.027.027-.059.046-.086.073l-4.919 5.059c-.032.033-.053.07-.083.103zm7.038 2.701l-1.885 1.941c-.378.39-.886.586-1.406.587a1.948 1.948 0 01-1.336-.523l-.58-.542a1.872 1.872 0 01-.153-2.582l5.097-5.246a1.95 1.95 0 011.311-.508c.488.001.964.174 1.338.523l.579.542c.397.371.595.868.597 1.378a1.87 1.87 0 01-.514 1.288c-.007.01-3.003 3.087-3.003 3.087-.017.017-.029.037-.045.055zm7.538 1.106l-2.977 3.064c-.379.39-.887.586-1.405.587a1.952 1.952 0 01-1.338-.523l-.024-.023a1.875 1.875 0 01-.11-2.635l3.051-3.144c.376-.371.868-.56 1.375-.562.488.002.964.173 1.338.522l.026.025a1.88 1.88 0 01.064 2.689zm27.422-7.344l-.26.273c-.378.4-.893.602-1.422.604a1.952 1.952 0 01-1.24-.448l-7.405-6.737a1.178 1.178 0 00-1.643.06 1.126 1.126 0 00.06 1.612l8.007 7.287a1.886 1.886 0 01.1 2.69l-.557.59c-.38.4-.896.602-1.423.603a1.948 1.948 0 01-1.318-.505l-8.005-7.297a1.18 1.18 0 00-1.645.06 1.126 1.126 0 00.062 1.612l7.013 6.393a1.88 1.88 0 01.083 2.667l-.561.591c-.38.401-.895.604-1.426.605-.478 0-.947-.166-1.319-.504l-7.31-6.652a1.179 1.179 0 00-1.644.06 1.128 1.128 0 00.062 1.614l3.719 3.388c.412.375.62.883.62 1.4 0 .464-.167.914-.505 1.273a1.927 1.927 0 01-1.406.594 1.963 1.963 0 01-1.325-.508L32.594 38.1a4.135 4.135 0 00-1.019-4.567l-.006-.006-.025-.024.006.006a4.298 4.298 0 00-2.944-1.154c-.074 0-.15.018-.224.022 0-.013.003-.026.003-.04.002-1.1-.44-2.21-1.317-3.029l-.579-.543a4.283 4.283 0 00-2.149-1.08c.16-.45.251-.918.251-1.385.002-1.1-.44-2.211-1.317-3.031l-.596-.557a4.296 4.296 0 00-2.942-1.152c-.133 0-.265.026-.397.039a4.137 4.137 0 00-1.307-2.934l-.05-.048a4.302 4.302 0 00-2.943-1.153 4.3 4.3 0 00-3.088 1.293l-1.047 1.078-6.638-5.582a1.069 1.069 0 01-.108-1.547l6.429-7.097c.16-.18.439-.377.788-.515.345-.14.754-.219 1.117-.217.32-.002.6.058.794.14l3.53 1.485c1.133.468 2.369.642 3.614.648 1.244-.006 2.48-.18 3.615-.648l3.528-1.483c.41-.18 1.146-.32 1.874-.315.735-.007 1.46.143 1.862.315l-2.246 1.66a4.947 4.947 0 00-2.012 3.977 4.9 4.9 0 00.993 2.955l-.001-.002.475.63a5.23 5.23 0 001.958 1.572 5.634 5.634 0 002.382.529c.923 0 1.872-.23 2.725-.734l2.149-1.275c.285-.175.82-.323 1.384-.319.332 0 .668.046.959.128.292.08.534.199.694.313l5.952 4.206c1.286.907 3.443 2.642 4.604 3.701l2.013 1.836.01-.01 4.005 3.654c.408.372.615.878.616 1.396 0 .472-.17.93-.513 1.296z"
      fill="currentColor"/>
  </symbol>
</svg>
